<?xml version="1.0" encoding="UTF-8"?>
<!DOCTYPE svg PUBLIC "-//W3C//DTD SVG 1.1//EN" "http://www.w3.org/Graphics/SVG/1.1/DTD/svg11.dtd">
<!-- Creator: CorelDRAW -->
<svg xmlns="http://www.w3.org/2000/svg" xml:space="preserve" width="2048px" height="2048px" style="shape-rendering:geometricPrecision; text-rendering:geometricPrecision; image-rendering:optimizeQuality; fill-rule:evenodd; clip-rule:evenodd"
viewBox="0 0 2048 2048"
 xmlns:xlink="http://www.w3.org/1999/xlink">
 <defs>
  <style type="text/css">
   <![CDATA[
    .fil2 {fill:none}
    .fil3 {fill:#2A7580}
    .fil7 {fill:#4C96A1}
    .fil9 {fill:#50AFC2}
    .fil8 {fill:#5DC0D5}
    .fil6 {fill:#B3B3B3}
    .fil1 {fill:#E64A19}
    .fil4 {fill:#E8E8D0}
    .fil0 {fill:#FF5722}
    .fil5 {fill:#FFC107}
   ]]>
  </style>
   <clipPath id="id0">
    <path d="M1024 -0.0011811c565.541,0 1024,458.461 1024,1024 0,565.541 -458.461,1024 -1024,1024 -565.541,0 -1024,-458.461 -1024,-1024 0,-565.541 458.461,-1024 1024,-1024z"/>
   </clipPath>
 </defs>
 <g id="Layer_x0020_1">
  <metadata id="CorelCorpID_0Corel-Layer"/>
  <path class="fil0" d="M1024 -0.0011811c565.541,0 1024,458.461 1024,1024 0,565.541 -458.461,1024 -1024,1024 -565.541,0 -1024,-458.461 -1024,-1024 0,-565.541 458.461,-1024 1024,-1024z"/>
  <g style="clip-path:url(#id0)">
   <g id="_452512640">
    <path id="_4525214001" class="fil1" d="M1290.51 702.241l-234.458 -162.424c-0.553937,-0.383859 -1.11732,-0.755906 -1.69016,-1.11614 -0.572835,-0.360236 -1.15748,-0.709843 -1.74803,-1.04882 -0.591733,-0.337796 -1.19055,-0.66378 -1.79882,-0.979135 -0.608268,-0.315355 -1.2248,-0.618898 -1.84843,-0.911812 -0.623623,-0.292914 -1.25433,-0.572835 -1.89213,-0.843308 -0.637796,-0.269292 -1.28268,-0.526772 -1.93347,-0.773623 -0.650788,-0.246851 -1.30748,-0.483071 -1.9689,-0.7063 -0.662599,-0.223229 -1.32992,-0.435827 -2.00197,-0.636615 -0.672048,-0.200788 -1.35118,-0.388583 -2.0315,-0.56693 -0.681497,-0.177165 -1.36654,-0.344882 -2.05512,-0.499607 -0.688583,-0.154725 -1.37953,-0.297638 -2.0752,-0.429922 -0.694489,-0.131102 -1.39252,-0.251575 -2.09291,-0.360236 -0.700394,-0.108662 -1.40315,-0.204331 -2.10591,-0.290551 -0.703938,-0.0850394 -1.40669,-0.159449 -2.11299,-0.222047 -0.705119,-0.0625985 -1.4126,-0.113386 -2.1189,-0.152362 -0.7063,-0.0389764 -1.4126,-0.0673229 -2.1189,-0.0826772 -0.7063,-0.0165354 -1.4126,-0.0200788 -2.11654,-0.0129921 -0.703938,0.00708662 -1.40788,0.0259843 -2.10827,0.056693 -0.701575,0.0307087 -1.40079,0.0732284 -2.09764,0.126378 -0.696851,0.0543308 -1.39134,0.119291 -2.08229,0.196063 -0.690945,0.0767717 -1.37953,0.166536 -2.06339,0.266929 -0.683859,0.100394 -1.36417,0.212599 -2.03977,0.336614 -0.675591,0.124016 -1.34646,0.258662 -2.0126,0.4063 -0.666142,0.147638 -1.32638,0.305906 -1.98189,0.477166 -0.654331,0.17126 -1.30394,0.35315 -1.94646,0.548032 -0.64252,0.193701 -1.27913,0.400394 -1.90748,0.617717 -0.628347,0.217323 -1.25197,0.448819 -1.86496,0.689764 -0.614174,0.240945 -1.22008,0.494882 -1.81654,0.759449 -0.597638,0.264567 -1.18701,0.540945 -1.76693,0.830316 -0.579922,0.288189 -1.15039,0.589371 -1.71142,0.901182 -0.559843,0.311811 -1.11142,0.635434 -1.65118,0.972048 -0.540945,0.335433 -1.07008,0.682678 -1.58977,1.04291l-236.365 163.83 -213.03 0 0 147.656 -96.3036 66.7501 0.22441 0.22441 0 549.398 0 33.9733c0,0.42874 0.0153543,0.853938 0.046063,1.27441 0.0307087,0.421654 0.0755906,0.839764 0.135827,1.25197 0.0602363,0.412205 0.134646,0.820867 0.223229,1.22362 0.0885827,0.402756 0.191339,0.800788 0.307087,1.19291 0.115748,0.392126 0.245669,0.779528 0.387402,1.15984 0.141732,0.380315 0.297638,0.754725 0.464174,1.12323 0.167717,0.367323 0.347244,0.728741 0.538583,1.08307 0.191339,0.35315 0.394488,0.700394 0.609449,1.03937 0.194882,0.308268 0.400394,0.61063 0.612993,0.905906l0.00944883 0.0141732c0.210236,0.290551 0.429922,0.574016 0.656693,0.850394l0.0212599 0.0259843c0.217323,0.263386 0.441733,0.519685 0.673229,0.770079l0.022441 0.0248032 0.00708662 0.00826772c0.240945,0.258662 0.491339,0.511418 0.747638,0.755906l0.011811 0.011811 0.00708662 0.00590552c0.261024,0.248032 0.529134,0.488977 0.805512,0.721654l1133.78 1133.78 0.520867 0.596457 0.766536 0.775985 0.812599 0.72756 0.855119 0.676772 0.897638 0.624804 0.936615 0.568111 0.973229 0.511418 1.0063 0.45 1.03819 0.388583 1.0689 0.322441 1.0937 0.255118 1.11969 0.185433 1.14095 0.113386 1.16102 0.0377953 1116.12 0 1.16102 -0.0377953 1.14095 -0.113386 1.1185 -0.185433 1.09488 -0.255118 1.06772 -0.322441 1.03819 -0.388583 1.00748 -0.45 0.973229 -0.511418 0.935434 -0.568111 0.897638 -0.624804 0.8563 -0.676772 0.811418 -0.72756 0.766536 -0.775985 0.71693 -0.820867 0.666142 -0.864568 0.612993 -0.905906 0.609449 -1.03937 0.538583 -1.08307 0.464174 -1.12323 0.387402 -1.15984 0.307087 -1.19291 0.223229 -1.22362 0.135827 -1.25197 0.046063 -1.27441 0 -33.9733 0 -549.623 0.504331 0 -96.3036 -96.3036 0 -118.102 -1135.88 -1135.88 -213.19 0z"/>
   </g>
  </g>
  <path class="fil2" d="M1024 -0.0011811c565.541,0 1024,458.461 1024,1024 0,565.541 -458.461,1024 -1024,1024 -565.541,0 -1024,-458.461 -1024,-1024 0,-565.541 458.461,-1024 1024,-1024z"/>
  <g id="_441538848">
   <path id="_441531408" class="fil3" d="M1599.5 916.647l0 583.596c0,9.66851 -7.90985,17.5772 -17.5772,17.5772l-1116.12 0c-9.66851,0 -17.5784,-7.90867 -17.5784,-17.5772l0 -583.596 -0.22441 0 545.698 -378.235c16.6016,-11.5075 44.6327,-10.8673 62.3504,1.40551l543.952 376.83 -0.504331 0z"/>
   <rect id="_441540576" class="fil4" x="544.303" y="702.242" width="959.393" height="627.73"/>
   <rect id="_441551736" class="fil5" x="657.182" y="825.66" width="408.026" height="32.292"/>
   <rect id="_441525672" class="fil6" x="657.182" y="904.153" width="733.636" height="32.292"/>
   <rect id="_441555912" class="fil6" x="657.182" y="982.646" width="733.636" height="32.292"/>
   <rect id="_441557232" class="fil6" x="657.182" y="1061.14" width="733.636" height="32.292"/>
   <rect id="_441551184" class="fil6" x="657.182" y="1139.63" width="733.636" height="32.292"/>
   <path id="_441538536" class="fil7" d="M1596.78 1509.59c-3.12047,4.93465 -8.62796,8.22875 -14.8654,8.22875l-1116.12 0c-6.23859,0 -11.7449,-3.2941 -14.8665,-8.22875l542.879 -377.074c16.5272,-11.4791 44.4733,-10.8484 62.1071,1.39961l540.863 375.675z"/>
   <path id="_441552888" class="fil8" d="M450.936 1509.59l452.464 -314.274 -455.176 -278.514 0 583.439c0,3.42874 0.994489,6.63662 2.71181,9.34843z"/>
   <path id="_441536736" class="fil9" d="M450.936 1509.59l452.464 -314.274 -7.70316 -4.71378 -447.473 275.666 0 33.9733c0,3.42874 0.994489,6.63662 2.71181,9.34843z"/>
   <path id="_441554712" class="fil8" d="M1599.5 1500.24l0 -583.596 -0.473622 0 -455.044 278.432 452.805 314.512c1.71732,-2.71181 2.71181,-5.91969 2.71181,-9.34843z"/>
   <path id="_441548592" class="fil9" d="M1599.5 1500.24l0 -33.9733 -447.837 -275.89 -7.68071 4.69961 452.805 314.512c1.71732,-2.71181 2.71181,-5.91969 2.71181,-9.34843z"/>
  </g>
 </g>
</svg>
