<?xml version="1.0" encoding="UTF-8"?>
<svg xmlns="http://www.w3.org/2000/svg" xmlns:xlink="http://www.w3.org/1999/xlink" version="1.1" viewBox="100 410 1100 200" xml:space="preserve" style="background: transparent;">
<desc>Created with Fabric.js 5.3.0</desc>
<defs>
</defs>
<g transform="matrix(1 0 0 1 640 512)" id="background-logo">

</g>
<g transform="matrix(0.9338112574406281 0 0 0.9338112574406281 211.054375 512)" id="logo-logo">
<g style="" paint-order="stroke">
		<g transform="matrix(0.0838747091998703 0 0 -0.08387470919987032 0 0)">
<linearGradient id="SVGID_75053_19010" gradientUnits="userSpaceOnUse" gradientTransform="matrix(2124.95 2646.56 2646.56 -2124.95 2736.9 2784.98)" x1="0" y1="0" x2="1" y2="0">
<stop offset="0%" style="stop-color:rgb(246,135,18);stop-opacity: 1"/>
<stop offset="100%" style="stop-color:rgb(242,239,30);stop-opacity: 1"/>
</linearGradient>
<path style="stroke: none; stroke-width: 1; stroke-dasharray: none; stroke-linecap: butt; stroke-dashoffset: 0; stroke-linejoin: miter; stroke-miterlimit: 4; fill: url(#SVGID_75053_19010); fill-rule: nonzero; opacity: 1;" paint-order="stroke" transform=" translate(-3525.1849999999995, -3644.564999999999)" d="M 4408.42 4591.32 L 4532.59 4467.15 L 4295.71 4230.2699999999995 C 4107.17 4509 3788.14 4692.5599999999995 3427.07 4692.5599999999995 C 2849.2000000000003 4692.5599999999995 2379.07 4222.429999999999 2379.07 3644.5599999999995 C 2379.07 3584.4599999999996 2384.4700000000003 3525.6299999999997 2394.27 3468.2999999999993 L 2582.19 3656.2199999999993 C 2588.5 4116.879999999999 2964.94 4489.719999999999 3427.07 4489.719999999999 C 3732.4500000000003 4489.719999999999 4000.48 4326.929999999999 4148.99 4083.5699999999993 L 3649.0299999999997 3583.609999999999 L 3222.7299999999996 4009.939999999999 L 2616.9399999999996 3404.119999999999 L 2250.2 3037.3599999999988 C 2277.3999999999996 2971.569999999999 2310.99 2909.029999999999 2350.41 2850.739999999999 L 2558.45 3058.809999999999 C 2747.02 2780.109999999999 3065.99 2596.569999999999 3427.0699999999997 2596.569999999999 C 4004.93 2596.569999999999 4475.0599999999995 3066.699999999999 4475.0599999999995 3644.5599999999986 C 4475.0599999999995 3704.4999999999986 4469.679999999999 3763.1599999999985 4459.95 3820.319999999999 L 4271.91 3632.3099999999986 C 4265.29 3171.9099999999985 3888.99 2799.4099999999985 3427.0699999999997 2799.4099999999985 C 3121.7099999999996 2799.4099999999985 2853.7099999999996 2962.1699999999983 2705.1699999999996 3205.5099999999984 L 3222.7299999999996 3723.0599999999986 L 3649.0299999999997 3296.7299999999987 L 4237.219999999999 3884.9199999999987 L 4237.329999999999 3884.529999999999 L 4396.049999999999 4043.279999999999 L 4395.909999999999 4043.6499999999987 L 4675.999999999999 4323.729999999999 L 4800.169999999999 4199.559999999999 L 4800.169999999999 4591.319999999999 L 4408.419999999999 4591.319999999999" stroke-linecap="round"/>
</g>
</g>
</g>
<g transform="matrix(1.9211538461538462 0 0 1.9211538461538462 767.4013173076922 491.2622128404641)" id="text-logo">
<g style="" paint-order="stroke">
		<g transform="matrix(1 0 0 1 0 -2.842171e-14)" id="text-logo-path-0">
<path style="stroke: none; stroke-width: 0; stroke-dasharray: none; stroke-linecap: butt; stroke-dashoffset: 0; stroke-linejoin: miter; stroke-miterlimit: 4; fill: rgb(244,165,21); fill-rule: nonzero; opacity: 1;" paint-order="stroke" transform=" translate(-205.8, 16.395)" d="M 14.3 0.67 C 20.4 0.67 26.3 -2.74 26.3 -9.31 C 26.3 -15.79 21.22 -18.48 15.7 -20.16 C 14.21 -20.64 13.1 -21.07 12.38 -21.41 C 11.38 -21.89 10.66 -22.42 10.66 -23.62 C 10.66 -25.01 12.43 -25.54 13.54 -25.54 C 16.13 -25.54 17.42 -24.38 18.53 -22.13 L 25.34 -26.11 C 22.99 -30.96 18.91 -33.46 13.54 -33.46 C 7.68 -33.46 2.69 -29.66 2.69 -23.62 C 2.69 -17.42 7.1 -14.98 12.43 -13.39 C 14.11 -12.91 15.31 -12.48 16.13 -12.14 C 17.23 -11.71 18.34 -11.14 18.34 -9.79 C 18.34 -8.02 15.94 -7.15 14.5 -7.15 C 11.38 -7.15 9.22 -8.35 8.02 -11.33 L 1.3 -7.39 C 3.46 -1.87 8.54 0.67 14.3 0.67 Z M 53.33 -32.83 L 40.8 -32.83 L 40.8 0 L 48.77 0 L 48.77 -10.56 L 53.33 -10.56 C 59.52 -10.56 64.51 -15.55 64.51 -21.7 C 64.51 -27.84 59.52 -32.83 53.33 -32.83 Z M 48.77 -18.14 L 48.77 -25.25 L 53.33 -25.25 C 55.39 -25.25 56.88 -23.76 56.88 -21.7 C 56.88 -19.68 55.34 -18.14 53.33 -18.14 Z M 86.98 -7.54 L 86.98 -13.01 L 98.4 -13.01 L 98.4 -20.54 L 86.98 -20.54 L 86.98 -25.25 L 99.55 -25.25 L 99.55 -32.83 L 78.96 -32.83 L 78.96 0 L 99.79 0 L 99.79 -7.54 Z M 123.65 -7.54 L 123.65 -13.01 L 135.07 -13.01 L 135.07 -20.54 L 123.65 -20.54 L 123.65 -25.25 L 136.22 -25.25 L 136.22 -32.83 L 115.63 -32.83 L 115.63 0 L 136.46 0 L 136.46 -7.54 Z M 166.32 -32.83 L 152.3 -32.83 L 152.3 0 L 166.32 0 C 175.68 0 183.17 -6.91 183.17 -16.27 C 183.17 -25.58 175.68 -32.83 166.32 -32.83 Z M 160.32 -7.54 L 160.32 -25.25 L 166.32 -25.25 C 171.26 -25.25 175.2 -21.26 175.2 -16.37 C 175.2 -11.42 171.17 -7.54 166.32 -7.54 Z M 214.22 -32.83 L 207.55 -20.5 L 200.83 -32.83 L 191.81 -32.83 L 203.52 -11.14 L 203.52 0 L 211.54 0 L 211.54 -11.04 L 223.25 -32.83 Z M 269.04 -7.54 L 269.04 -32.83 L 261.02 -32.83 L 261.02 0 L 281.76 0 L 281.76 -7.54 Z M 310.7 0.67 C 320.11 0.67 327.6 -6.96 327.6 -16.27 C 327.6 -25.73 320.06 -33.17 310.7 -33.17 C 301.3 -33.17 293.76 -25.58 293.76 -16.27 C 293.76 -7.01 301.34 0.67 310.7 0.67 Z M 301.73 -16.27 C 301.73 -21.17 305.86 -25.2 310.7 -25.2 C 315.65 -25.2 319.58 -21.17 319.58 -16.27 C 319.58 -11.38 315.65 -7.34 310.7 -7.34 C 305.81 -7.34 301.73 -11.42 301.73 -16.27 Z M 361.25 0 L 369.79 0 L 357.74 -32.83 L 349.2 -32.83 L 337.2 0 L 345.74 0 L 347.86 -5.71 L 359.14 -5.71 Z M 350.59 -13.3 L 353.52 -21.22 L 356.35 -13.3 Z M 402.29 -32.83 L 402.29 -16.13 L 391.63 -32.83 L 383.62 -32.83 L 383.62 0 L 391.63 0 L 391.63 -18.77 L 403.63 0 L 410.3 0 L 410.3 -32.83 Z" stroke-linecap="round"/>
</g>
</g>
</g>
<g transform="matrix(1.9211538461538462 0 0 1.9211538461538462 643.702572169357 560.4308607755904)" id="tagline-3e2d5839-917f-4811-b863-91b455f4178e-logo">
<g style="" paint-order="stroke">
		<g transform="matrix(1 0 0 1 -5.684342e-14 0)" id="tagline-3e2d5839-917f-4811-b863-91b455f4178e-logo-path-0">
<path style="stroke: none; stroke-width: 0; stroke-dasharray: none; stroke-linecap: butt; stroke-dashoffset: 0; stroke-linejoin: miter; stroke-miterlimit: 4; fill: rgb(244,174,22); fill-rule: nonzero; opacity: 1;" paint-order="stroke" transform=" translate(-143.03, 6.699999999999999)" d="M 2.6 0 L 2.6 -6 L 9.4 -6 L 9.4 -7.4 L 2.6 -7.4 L 2.6 -12 L 10.6 -12 L 10.6 -13.4 L 1 -13.4 L 1 0 Z M 21.26 0 L 21.26 -13.4 L 19.66 -13.4 L 19.66 0 Z M 31.94 0 L 31.94 -11.12 L 39.82 0 L 41.54 0 L 41.54 -13.4 L 39.94 -13.4 L 39.94 -2.26 L 32.04 -13.4 L 30.32 -13.4 L 30.34 -13.38 L 30.34 0 Z M 52.32 0 L 53.7 -3.3 L 60.42 -3.3 L 61.8 0 L 63.52 0 L 57.92 -13.4 L 56.2 -13.4 L 50.6 0 Z M 54.28 -4.7 L 57.06 -11.34 L 59.84 -4.7 Z M 74.2 0 L 74.2 -11.12 L 82.08 0 L 83.8 0 L 83.8 -13.4 L 82.2 -13.4 L 82.2 -2.26 L 74.3 -13.4 L 72.58 -13.4 L 72.6 -13.38 L 72.6 0 Z M 105.68 -2.94 C 104.4 -1.02 102.24 0.22 99.82 0.22 C 97.28 0.22 95.04 -1.14 93.8 -3.26 C 93.18 -4.32 92.86 -5.46 92.86 -6.7 C 92.86 -9.18 94.16 -11.42 96.3 -12.68 C 97.36 -13.3 98.54 -13.62 99.82 -13.62 C 102.3 -13.62 104.5 -12.32 105.76 -10.3 L 104.4 -9.52 C 103.46 -11.12 101.74 -12.12 99.82 -12.12 C 97.9 -12.12 96.14 -11.08 95.18 -9.42 C 94.7 -8.6 94.46 -7.68 94.46 -6.7 C 94.46 -4.72 95.5 -2.98 97.14 -2.02 C 97.96 -1.54 98.84 -1.3 99.82 -1.3 C 101.66 -1.3 103.32 -2.24 104.3 -3.74 Z M 114.82 0 L 124.42 0 L 124.42 -1.4 L 116.42 -1.4 L 116.42 -6 L 123.22 -6 L 123.22 -7.4 L 116.42 -7.4 L 116.42 -12 L 124.42 -12 L 124.42 -13.4 L 114.82 -13.4 Z M 146.06 -4.16 L 144.54 -3.6 C 145.48 -1.06 147.3 0.2 150.02 0.2 C 152.92 0.2 154.96 -1.46 154.96 -3.7 C 154.96 -5.3 153.96 -6.24 152.74 -6.68 C 152.1 -6.92 151.3 -7.14 150.28 -7.38 C 148.54 -7.78 147.72 -8.04 147.08 -8.66 C 146.74 -8.98 146.58 -9.38 146.58 -9.88 C 146.58 -11.26 147.96 -12.2 149.72 -12.2 C 151.54 -12.2 152.5 -11.46 153.28 -9.5 L 154.76 -10.1 C 153.82 -12.46 152.2 -13.6 149.72 -13.6 C 147.08 -13.6 144.98 -12.04 144.98 -9.88 C 144.98 -8.18 146.06 -7.18 147.32 -6.7 C 147.98 -6.44 148.8 -6.2 149.86 -5.94 C 151.48 -5.54 152.28 -5.34 152.9 -4.78 C 153.2 -4.5 153.36 -4.14 153.36 -3.7 C 153.36 -2.2 152.08 -1.2 150.02 -1.2 C 147.84 -1.2 146.76 -2.2 146.06 -4.16 Z M 164.02 0 L 173.62 0 L 173.62 -1.4 L 165.62 -1.4 L 165.62 -6 L 172.42 -6 L 172.42 -7.4 L 165.62 -7.4 L 165.62 -12 L 173.62 -12 L 173.62 -13.4 L 164.02 -13.4 Z M 184.28 0 L 184.28 -5.58 L 188.14 -5.58 L 191.64 0 L 193.52 0 L 190 -5.64 C 191.94 -5.96 193.38 -7.54 193.38 -9.52 C 193.38 -11.7 191.56 -13.4 189.28 -13.4 L 182.68 -13.4 L 182.68 0 Z M 189.28 -6.96 L 184.28 -6.98 L 184.28 -12 L 189.18 -12 C 190.8 -12 191.88 -11.02 191.88 -9.52 C 191.88 -8 190.86 -7 189.28 -6.96 Z M 208.7 0 L 214.3 -13.4 L 212.58 -13.4 L 207.84 -2.06 L 203.1 -13.4 L 201.38 -13.4 L 206.98 0 Z M 224.96 0 L 224.96 -13.4 L 223.36 -13.4 L 223.36 0 Z M 246.84 -2.94 C 245.56 -1.02 243.4 0.22 240.98 0.22 C 238.44 0.22 236.2 -1.14 234.96 -3.26 C 234.34 -4.32 234.02 -5.46 234.02 -6.7 C 234.02 -9.18 235.32 -11.42 237.46 -12.68 C 238.52 -13.3 239.7 -13.62 240.98 -13.62 C 243.46 -13.62 245.66 -12.32 246.92 -10.3 L 245.56 -9.52 C 244.62 -11.12 242.9 -12.12 240.98 -12.12 C 239.06 -12.12 237.3 -11.08 236.34 -9.42 C 235.86 -8.6 235.62 -7.68 235.62 -6.7 C 235.62 -4.72 236.66 -2.98 238.3 -2.02 C 239.12 -1.54 240 -1.3 240.98 -1.3 C 242.82 -1.3 244.48 -2.24 245.46 -3.74 Z M 255.98 0 L 265.58 0 L 265.58 -1.4 L 257.58 -1.4 L 257.58 -6 L 264.38 -6 L 264.38 -7.4 L 257.58 -7.4 L 257.58 -12 L 265.58 -12 L 265.58 -13.4 L 255.98 -13.4 Z M 276.16 -4.16 L 274.64 -3.6 C 275.58 -1.06 277.4 0.2 280.12 0.2 C 283.02 0.2 285.06 -1.46 285.06 -3.7 C 285.06 -5.3 284.06 -6.24 282.84 -6.68 C 282.2 -6.92 281.4 -7.14 280.38 -7.38 C 278.64 -7.78 277.82 -8.04 277.18 -8.66 C 276.84 -8.98 276.68 -9.38 276.68 -9.88 C 276.68 -11.26 278.06 -12.2 279.82 -12.2 C 281.64 -12.2 282.6 -11.46 283.38 -9.5 L 284.86 -10.1 C 283.92 -12.46 282.3 -13.6 279.82 -13.6 C 277.18 -13.6 275.08 -12.04 275.08 -9.88 C 275.08 -8.18 276.16 -7.18 277.42 -6.7 C 278.08 -6.44 278.9 -6.2 279.96 -5.94 C 281.58 -5.54 282.38 -5.34 283 -4.78 C 283.3 -4.5 283.46 -4.14 283.46 -3.7 C 283.46 -2.2 282.18 -1.2 280.12 -1.2 C 277.94 -1.2 276.86 -2.2 276.16 -4.16 Z" stroke-linecap="round"/>
</g>
</g>
</g>
</svg>